<svg id="Layer_1" data-name="Layer 1" xmlns="http://www.w3.org/2000/svg" xmlns:xlink="http://www.w3.org/1999/xlink" viewBox="0 0 112 112"><defs><style>.cls-1{fill:none;stroke-miterlimit:10;stroke-width:4px;stroke:url(#linear-gradient);}.cls-2{fill:url(#linear-gradient-2);}</style><linearGradient id="linear-gradient" x1="-6.26" y1="66.81" x2="118.26" y2="45.19" gradientUnits="userSpaceOnUse"><stop offset="0" stop-color="#bf2126"/><stop offset="0.26" stop-color="#ef763d"/><stop offset="0.73" stop-color="#f3903f"/><stop offset="0.86" stop-color="#fdc70c"/><stop offset="1" stop-color="#e05a35"/></linearGradient><linearGradient id="linear-gradient-2" x1="27.59" y1="70.32" x2="107.81" y2="56.39" gradientUnits="userSpaceOnUse"><stop offset="0" stop-color="#ed6b3d"/><stop offset="0.14" stop-color="#fdc70c"/><stop offset="0.27" stop-color="#f3903f"/><stop offset="0.74" stop-color="#ef763d"/><stop offset="1" stop-color="#bf2126"/></linearGradient></defs><rect class="cls-1" x="2" y="2" width="108" height="108" rx="8"/><path class="cls-2" d="M71.11,16.34c21.7,0,35.39,14.23,35.39,37.35,0,30.76-20.63,58-49.61,58-21.7,0-35.39-14.23-35.39-37.35C21.5,43.55,42.13,16.34,71.11,16.34Zm-3.2,20.28c-12.8,0-21.34,17.42-21.34,34.67,0,13,5.34,20.09,13.52,20.09,12.8,0,21.34-17.42,21.34-34.67C81.43,43.73,76.09,36.62,67.91,36.62Z" transform="translate(-8 -8)"/></svg>